<?xml version="1.0" encoding="utf-8"?>
<!-- Generator: Adobe Illustrator 25.0.1, SVG Export Plug-In . SVG Version: 6.00 Build 0)  -->
<svg version="1.1" height="32" width="32" id="Laag_1" xmlns="http://www.w3.org/2000/svg" xmlns:xlink="http://www.w3.org/1999/xlink" x="0px" y="0px"
	 viewBox="0 0 32 32" style="enable-background:new 0 0 32 32;" xml:space="preserve">
<style type="text/css">
	.st0{fill:#FF8B00;}
</style>
<path class="st0" d="M21.2,2.3C19.7,0.8,17.9,0,15.8,0s-4,0.8-5.5,2.3S8.1,5.6,8.1,7.7c0,2.1,0.8,3.9,2.3,5.4
	c1.5,1.5,3.3,2.2,5.5,2.2s3.9-0.8,5.4-2.2s2.3-3.3,2.3-5.4C23.5,5.6,22.7,3.8,21.2,2.3z"/>
<path class="st0" d="M29.3,24.6c0-0.6-0.1-1.3-0.3-2c-0.1-0.7-0.3-1.4-0.5-2c-0.2-0.6-0.5-1.3-0.8-1.9c-0.4-0.6-0.8-1.2-1.3-1.6
	c-0.5-0.5-1.1-0.9-1.8-1.1c-0.7-0.3-1.5-0.4-2.3-0.4c-0.3,0-0.6,0.1-1.2,0.5c-0.4,0.2-0.8,0.5-1.3,0.8c-0.4,0.3-1,0.5-1.7,0.7
	c-0.7,0.2-1.4,0.3-2.1,0.3c-0.7,0-1.4-0.1-2.1-0.3c-0.7-0.2-1.3-0.5-1.7-0.7c-0.5-0.3-0.9-0.6-1.3-0.8c-0.6-0.4-0.9-0.5-1.2-0.5
	c-0.8,0-1.6,0.1-2.3,0.4C6.7,16.2,6,16.5,5.5,17c-0.5,0.5-0.9,1-1.3,1.6c-0.4,0.6-0.6,1.2-0.8,1.9c-0.2,0.6-0.4,1.3-0.5,2
	c-0.1,0.7-0.2,1.4-0.3,2c0,0.6-0.1,1.2-0.1,1.9c0,1.7,0.5,3,1.6,4c1,1,2.4,1.5,4.1,1.5h15.4c1.7,0,3-0.5,4.1-1.5c1-1,1.6-2.4,1.6-4
	C29.3,25.8,29.3,25.2,29.3,24.6z"/>
</svg>
