<?xml version="1.0" encoding="utf-8"?>
<!-- Generator: Adobe Illustrator 25.0.1, SVG Export Plug-In . SVG Version: 6.00 Build 0)  -->
<svg version="1.1" id="bold" xmlns="http://www.w3.org/2000/svg" xmlns:xlink="http://www.w3.org/1999/xlink" x="0px" y="0px"
	 viewBox="0 0 512 512" style="enable-background:new 0 0 512 512;" xml:space="preserve">
<style type="text/css">
	.st0{fill:#FF8B00;}
</style>
<path class="st0" d="M335.8,0c-39.7,0-76.2,16.4-101.1,44.2C209.7,16.4,173.2,0,133.5,0C59.9,0,0,57.4,0,128
	c0,180.7,214.6,311.5,223.8,317c3.2,1.9,7,3,10.9,3c1.7,0,3.2-0.2,4.9-0.6c-16.4-24.1-26.2-53.3-26.2-84.7
	c0-82.3,67-149.3,149.3-149.3c29.9,0,57.6,8.7,80.9,23.9c15.8-33.7,25.8-70.2,25.8-109.2C469.3,57.4,409.4,0,335.8,0z"/>
<path class="st0" d="M505.7,475.6l-54.2-54.2c11.2-16.9,17.8-37,17.8-58.7c0-58.8-47.9-106.7-106.7-106.7S256,303.9,256,362.7
	s47.9,106.7,106.7,106.7c21.7,0,41.9-6.6,58.7-17.8l54.2,54.2c8.3,8.3,21.8,8.3,30.2,0C514.1,497.4,514.1,483.9,505.7,475.6
	L505.7,475.6z M362.7,426.7c-35.3,0-64-28.7-64-64s28.7-64,64-64s64,28.7,64,64S398,426.7,362.7,426.7z"/>
</svg>
