<?xml version="1.0" encoding="utf-8"?>
<!-- Generator: Adobe Illustrator 25.0.1, SVG Export Plug-In . SVG Version: 6.00 Build 0)  -->
<svg version="1.1" height="32" width="32" id="Laag_1" xmlns="http://www.w3.org/2000/svg" xmlns:xlink="http://www.w3.org/1999/xlink" x="0px" y="0px"
	 viewBox="0 0 512 455.5" style="enable-background:new 0 0 512 455.5;" xml:space="preserve">
<style type="text/css">
	.st0{fill:#47D647;}
</style>
<path class="st0" d="M471.4,44.6C444.9,15.8,408.5,0,369,0c-29.5,0-56.6,9.3-80.4,27.8c-12,9.3-22.9,20.7-32.5,34
	c-9.6-13.3-20.5-24.7-32.5-34C199.7,9.3,172.6,0,143,0C103.5,0,67.1,15.8,40.6,44.6C14.4,73,0,111.8,0,153.9
	c0,43.3,16.1,82.9,50.8,124.7c31,37.4,75.5,75.4,127.1,119.3l0.1,0.1c17.6,15,37.5,32,58.2,50.1c5.5,4.8,12.5,7.4,19.8,7.4
	c7.3,0,14.3-2.6,19.8-7.4c20.7-18.1,40.7-35.2,58.3-50.2c51.6-44,96.1-81.9,127.1-119.3c34.7-41.8,50.8-81.4,50.8-124.7
	C512,111.8,497.6,73,471.4,44.6z"/>
</svg>
