<svg width="32px" height="32px" id="Layer_1" data-name="Layer 1" xmlns="http://www.w3.org/2000/svg" viewBox="0 0 511.68 512"><path d="M413.4,189.82A335.92,335.92,0,0,0,239.54,1.9a20,20,0,0,0-28.39,20c4.55,47.57-.14,88.69-13.55,118.9-11.17,25.17-28.44,43.13-51.44,53.55-6.54-14.09-10.27-31.92-11.12-53.24-.44-14.68-16.8-23.92-29.61-16.71C-136.66,273.69,81.92,614.26,326,482.17a20,20,0,1,0-20.13-34.53C190.27,516.43,39,429.72,40.21,295.15c-1.11-43.09,23.79-87.91,59-117.22,4.25,20.67,11.61,38.29,22,52.63A20,20,0,0,0,143,238c41.48-12.18,73-40.19,91.09-81,12.7-28.61,19-63,18.71-102.69C323.75,97.47,358.8,158.06,376,203.86a20,20,0,1,0,37.42-14ZM486.83,51c-16.72,0-25,14.11-25,14.11-13.41-21.51-49-19.38-50,13.57,0,33.56,50,58.25,50,58.25s49.95-24.69,49.95-58.25C511.81,68.59,505.89,51,486.83,51Zm-66,299a222.87,222.87,0,0,1-51.62,93.23A20.25,20.25,0,0,1,336,421.31l8.19-10.73A181.9,181.9,0,0,0,385.14,259l-1.67-13.39a20.25,20.25,0,0,1,39.73-2.18A222.88,222.88,0,0,1,420.87,350Zm-100.71,32a20.21,20.21,0,0,0-28.56-28.61m9.51,19.06a6.74,6.74,0,1,1,9.53,0A6.75,6.75,0,0,1,301.11,372.39Zm77.7-85.73a20.21,20.21,0,1,0-7.45,27.6A20.23,20.23,0,0,0,378.81,286.66Zm-23.36,13.43a6.74,6.74,0,1,1,9.2,2.48A6.75,6.75,0,0,1,355.45,300.09ZM329,333.75l5-18.4a6.74,6.74,0,1,0-13-3.51l-5,18.39a6.73,6.73,0,0,0,13,3.52Zm-52.53-26.9a6.74,6.74,0,1,1-9.19-2.48A6.73,6.73,0,0,1,276.5,306.85Zm83.89,48.79a6.74,6.74,0,1,1-9.19-2.48A6.73,6.73,0,0,1,360.39,355.64ZM357.59,433a7.46,7.46,0,0,1-5.13-2L208.54,295.62a7.5,7.5,0,0,1,3.68-12.82l190.66-37.69a7.5,7.5,0,1,1,2.91,14.71L229.44,294.69,362.73,420a7.5,7.5,0,0,1-5.14,13Z" transform="translate(-0.13 0)"/></svg>