<?xml version="1.0" encoding="utf-8"?>
<!-- Generator: Adobe Illustrator 25.0.1, SVG Export Plug-In . SVG Version: 6.00 Build 0)  -->
<svg version="1.1" height="32" width="32" id="Laag_1" xmlns="http://www.w3.org/2000/svg" xmlns:xlink="http://www.w3.org/1999/xlink" x="0px" y="0px"
	 viewBox="0 0 32 32" style="enable-background:new 0 0 32 32;" xml:space="preserve">
<style type="text/css">
	.st0{fill:#FF8B00;}
</style>
<path class="st0" d="M27.2,4.4c-3-2.9-7-4.4-11.2-4.4C11.9-0.1,7.9,1.5,4.9,4.4c-3,2.9-4.7,6.8-4.8,11v0c0,4.3,1.8,8.3,5,11.2v3.9
	c0,0.8,0.5,1.4,1.2,1.6c0.1,0,0.2,0,0.3,0c0.3,0,0.6-0.1,0.8-0.2l3.1-1.9c1.8,0.6,3.6,0.9,5.4,0.9h0c0.1,0,0.2,0,0.3,0
	c4.1,0,7.9-1.5,10.9-4.4c3-2.9,4.7-6.8,4.8-11v-0.1C32,11.2,30.2,7.3,27.2,4.4z M12.9,10.9c0.5,0,1,0.2,1.4,0.5
	c0.4,0.3,0.7,0.7,0.9,1c0.2,0.3,0.5,0.5,0.9,0.5s0.7-0.2,0.9-0.5c0.2-0.3,0.4-0.7,0.9-1c0.4-0.3,0.9-0.5,1.4-0.5
	c1.6,0,2.7,1.3,2.7,3c0,2-1.7,3.5-4.6,5.9c-0.4,0.3-0.9,0.7-1.3,1.1c-0.5-0.4-0.9-0.8-1.3-1.1c-2.8-2.4-4.6-3.9-4.6-5.9
	C10.2,12.2,11.3,10.9,12.9,10.9z"/>
</svg>
