<?xml version="1.0" encoding="utf-8"?>
<!-- Generator: Adobe Illustrator 25.0.1, SVG Export Plug-In . SVG Version: 6.00 Build 0)  -->
<svg version="1.1" id="Capa_1" xmlns="http://www.w3.org/2000/svg" xmlns:xlink="http://www.w3.org/1999/xlink" x="0px" y="0px"
	 viewBox="0 0 32 32" style="enable-background:new 0 0 32 32;" xml:space="preserve">
<style type="text/css">
	.st0{fill:#FF8B00;}
</style>
<g>
	<g>
		<path class="st0" d="M30.7,14.7H4.3l4.4-4.4c0.5-0.5,0.5-1.3,0-1.8c-0.5-0.5-1.3-0.5-1.8,0l-6.5,6.5c0,0,0,0,0,0
			c-0.5,0.5-0.5,1.3,0,1.8c0,0,0,0,0,0l6.5,6.5c0.5,0.5,1.3,0.5,1.8,0c0.5-0.5,0.5-1.3,0-1.8l-4.4-4.4h26.5c0.7,0,1.3-0.6,1.3-1.3
			C32,15.3,31.4,14.7,30.7,14.7z"/>
	</g>
</g>
</svg>
