<?xml version="1.0" encoding="utf-8"?>
<!-- Generator: Adobe Illustrator 25.0.1, SVG Export Plug-In . SVG Version: 6.00 Build 0)  -->
<svg version="1.1" id="Layer_1" xmlns="http://www.w3.org/2000/svg" xmlns:xlink="http://www.w3.org/1999/xlink" x="0px" y="0px"
	 viewBox="0 0 32 32" style="enable-background:new 0 0 32 32;" xml:space="preserve">
<style type="text/css">
	.st0{fill:#FF8B00;}
</style>
<g>
	<g>
		<path class="st0" d="M7.1,17.2l14.2,14.2c0.3,0.3,0.8,0.5,1.2,0.5c0.5,0,0.9-0.2,1.2-0.5l1-1c0.7-0.7,0.7-1.8,0-2.5l-12-12l12-12
			c0.3-0.3,0.5-0.8,0.5-1.2c0-0.5-0.2-0.9-0.5-1.2l-1-1C23.5,0.2,23.1,0,22.6,0c-0.5,0-0.9,0.2-1.2,0.5L7.1,14.8
			c-0.3,0.3-0.5,0.8-0.5,1.2C6.6,16.5,6.8,16.9,7.1,17.2z"/>
	</g>
</g>
</svg>
