<?xml version="1.0" encoding="utf-8"?>
<!-- Generator: Adobe Illustrator 25.0.1, SVG Export Plug-In . SVG Version: 6.00 Build 0)  -->
<svg version="1.1" id="Laag_1" xmlns="http://www.w3.org/2000/svg" xmlns:xlink="http://www.w3.org/1999/xlink" x="0px" y="0px"
	 viewBox="0 0 512 512" style="enable-background:new 0 0 512 512;" xml:space="preserve">
<style type="text/css">
	.st0{fill:#2F2D2B;}
</style>
<path class="st0" d="M0,16l0,138.7c0,8.8,7.2,16,16,16h138.7c6.5,0,12.3-3.9,14.8-9.9c2.5-6,1.1-12.8-3.5-17.4l-50.8-50.8
	c39.4-31.4,89.4-49.9,140.8-49.9c117.6,0,213.3,95.7,213.3,213.3S373.6,469.3,256,469.3c-56.9,0-110.5-22.2-150.8-62.5
	c-8.3-8.3-21.8-8.3-30.2,0c-8.3,8.3-8.3,21.8,0,30.2c48.4,48.4,112.6,75,181,75c141.2,0,256-114.8,256-256S397.2,0,256,0
	C193.3,0,132.4,23.1,84.9,62.3L27.3,4.7C22.7,0.1,15.9-1.2,9.9,1.2C3.9,3.7,0,9.5,0,16z"/>
</svg>
